<svg xmlns="http://www.w3.org/2000/svg" xmlns:xlink="http://www.w3.org/1999/xlink" width="500" zoomAndPan="magnify" viewBox="0 0 375 374.999991" height="500" preserveAspectRatio="xMidYMid meet" version="1.0"><defs><g/><clipPath id="da812dbed5"><path d="M 70 135 L 305.117188 135 L 305.117188 350.25 L 70 350.25 Z M 70 135 " clip-rule="nonzero"/></clipPath></defs><rect x="-37.5" width="450" fill="#ffffff" y="-37.499999" height="449.999989" fill-opacity="1"/><rect x="-37.5" width="450" fill="#ffffff" y="-37.499999" height="449.999989" fill-opacity="1"/><rect x="-37.5" width="450" fill="#238679" y="-37.499999" height="449.999989" fill-opacity="1"/><g clip-path="url(#da812dbed5)"><path fill="#393f85" d="M 304.34375 346.023438 C 304.207031 345.613281 303.902344 345.253906 303.398438 345.042969 C 299.707031 343.933594 296.089844 342.589844 292.472656 341.261719 C 279.316406 336.351562 265.910156 332.195312 252.292969 328.761719 C 251.085938 326.011719 249.761719 323.316406 248.5 320.59375 C 243.683594 309.769531 240.144531 298.445312 236.46875 287.199219 C 231.59375 273.464844 228.1875 259.3125 224.820312 245.152344 C 222.097656 234.25 218.542969 223.550781 216.472656 212.496094 C 214.941406 202.015625 213.5 191.492188 212.789062 180.921875 C 211.609375 170.839844 216.945312 162.726562 226.058594 158.628906 C 230.488281 156.496094 235.539062 156.132812 239.804688 153.578125 C 244.828125 150.972656 249.753906 147.597656 252.84375 142.75 C 254.28125 140.6875 257.023438 135.070312 252.628906 134.992188 C 250.207031 135.792969 248.117188 137.453125 245.746094 138.425781 C 237.96875 141.941406 229.65625 144.113281 221.101562 144.390625 C 212.210938 144.835938 202.964844 143.089844 194.253906 145.152344 C 184.714844 149.601562 181.195312 160.480469 178.0625 169.765625 C 175.476562 177.652344 172.898438 185.535156 170.347656 193.429688 C 158.296875 230.542969 146.632812 267.820312 132.402344 304.175781 C 129.292969 311.691406 126.929688 319.480469 124.109375 327.101562 C 123.898438 327.992188 123.222656 329.046875 122.945312 330.039062 C 122.320312 330.273438 121.695312 330.570312 121.160156 330.71875 C 110.609375 334.347656 99.898438 337.511719 89.222656 340.734375 C 83.589844 342.167969 78.144531 344.222656 72.523438 345.679688 C 70.339844 345.464844 69.660156 348.246094 71.234375 349.046875 C 71.449219 349.550781 71.894531 349.949219 72.582031 350.019531 C 95.582031 349.960938 118.59375 350.265625 141.585938 349.53125 C 161.074219 348.890625 180.535156 347.417969 200.035156 347.070312 C 212.777344 347.003906 225.4375 347.523438 238.191406 347.800781 C 250.339844 347.488281 262.488281 347.542969 274.636719 347.816406 C 281.417969 348.132812 288.199219 348.398438 294.96875 348.871094 C 297.769531 348.996094 300.574219 349.085938 303.375 349.1875 C 304.328125 349.222656 305.105469 348.3125 305.085938 347.402344 C 305.085938 346.835938 304.785156 346.335938 304.34375 346.023438 Z M 304.34375 346.023438 " fill-opacity="1" fill-rule="nonzero"/></g><path fill="#212120" d="M 184.105469 329.863281 C 168.632812 328.855469 152.597656 327.578125 137.269531 325.351562 C 135.164062 324.972656 133.0625 324.539062 130.945312 324.226562 C 128.738281 323.90625 129.207031 320.40625 131.46875 320.765625 C 134.398438 321.199219 137.289062 321.859375 140.21875 322.289062 C 148.019531 323.445312 155.878906 324.082031 163.742188 324.683594 C 172.660156 325.597656 181.585938 326.640625 190.570312 326.367188 C 199.742188 326.675781 208.824219 325.402344 217.929688 324.496094 C 226.296875 323.605469 234.71875 323.464844 243.070312 322.421875 C 245.285156 322.164062 245.722656 325.679688 243.445312 325.902344 C 237.503906 326.628906 231.53125 326.996094 225.558594 327.324219 C 211.753906 328.589844 198.003906 330.425781 184.105469 329.863281 Z M 184.105469 329.863281 " fill-opacity="1" fill-rule="nonzero"/><path fill="#fecd50" d="M 213.453125 266.847656 C 211.164062 266.917969 208.875 266.957031 206.582031 266.960938 C 206.105469 263.519531 205.71875 260.066406 205.339844 256.613281 C 205.011719 254.765625 204.953125 251.675781 202.519531 251.492188 C 200.050781 251.699219 200.109375 254.949219 199.554688 256.777344 C 198.921875 259.757812 198.367188 262.757812 197.75 265.738281 C 197.628906 266.453125 197.316406 267.386719 197.210938 268.242188 C 195.183594 268.78125 193.070312 269.070312 191.128906 269.867188 C 189.328125 270.773438 189.953125 273.285156 191.675781 273.882812 C 194.058594 274.902344 196.652344 275.28125 199.203125 275.722656 C 199.972656 278.894531 201.25 287.414062 203.03125 288.554688 C 206.234375 289.851562 206.59375 285.046875 207.175781 282.96875 C 207.871094 280.175781 208.269531 277.332031 208.574219 274.480469 C 209.679688 274.382812 210.925781 273.367188 211.894531 272.9375 C 213.644531 271.8125 216.257812 271.039062 216.933594 268.882812 C 217.160156 266.882812 214.9375 266.625 213.453125 266.847656 Z M 197.273438 271.828125 C 197.335938 271.8125 197.402344 271.796875 197.46875 271.78125 C 197.46875 271.808594 197.472656 271.839844 197.476562 271.867188 C 197.410156 271.855469 197.339844 271.84375 197.269531 271.828125 Z M 208.953125 270.554688 C 208.953125 270.519531 208.957031 270.484375 208.960938 270.449219 C 209.023438 270.449219 209.089844 270.449219 209.152344 270.449219 C 209.085938 270.484375 209.019531 270.519531 208.953125 270.554688 Z M 208.953125 270.554688 " fill-opacity="1" fill-rule="nonzero"/><path fill="#fecd50" d="M 228.761719 296.4375 C 227.449219 296.324219 226.136719 296.285156 224.824219 296.21875 C 224.597656 294.207031 224.457031 292.210938 224.328125 290.183594 C 224.109375 287.996094 224.261719 285.660156 223.402344 283.605469 C 222.796875 282.476562 221.144531 282.34375 220.367188 283.355469 C 219.597656 284.484375 219.652344 285.960938 219.371094 287.257812 C 218.988281 289.722656 218.5625 292.175781 218.09375 294.625 C 218.027344 295.1875 217.824219 295.890625 217.6875 296.589844 C 215.214844 297.40625 210.957031 297.941406 210.480469 299.667969 C 209.820312 302.785156 214.601562 302.785156 216.769531 303.429688 C 217.03125 304.878906 217.980469 306.566406 218.160156 307.707031 C 218.972656 309.675781 219.105469 311.984375 220.285156 313.765625 C 222.417969 315.46875 223.707031 312.917969 223.707031 310.976562 C 224.011719 308.558594 224.148438 306.121094 224.253906 303.6875 C 225.867188 302.953125 227.480469 302.226562 229.066406 301.4375 C 232.117188 300.351562 232.449219 296.597656 228.761719 296.4375 Z M 220.722656 304.285156 C 220.660156 304.082031 220.597656 303.878906 220.535156 303.675781 C 220.605469 303.695312 220.675781 303.707031 220.75 303.71875 C 220.742188 303.90625 220.734375 304.09375 220.722656 304.285156 Z M 221.316406 296.832031 C 221.285156 296.859375 221.257812 296.886719 221.230469 296.917969 C 221.261719 296.730469 221.289062 296.546875 221.316406 296.375 C 221.304688 296.535156 221.304688 296.6875 221.316406 296.832031 Z M 224.417969 299.773438 C 224.417969 299.753906 224.417969 299.734375 224.417969 299.71875 C 224.46875 299.714844 224.519531 299.707031 224.574219 299.699219 C 224.519531 299.722656 224.46875 299.75 224.417969 299.773438 Z M 224.417969 299.773438 " fill-opacity="1" fill-rule="nonzero"/><path fill="#fecd50" d="M 172.601562 290.597656 C 170.515625 290.125 168.351562 289.808594 166.371094 288.984375 C 166.394531 287.109375 166.433594 285.230469 166.410156 283.355469 C 166.152344 280.324219 166.890625 276.941406 165.601562 274.121094 C 161.976562 271.128906 161.667969 278.007812 160.910156 280.152344 C 160.21875 282.851562 159.503906 285.546875 158.851562 288.257812 C 156.136719 288.902344 153.359375 289.414062 150.808594 290.464844 C 148.53125 292.765625 151.933594 294.230469 153.886719 294.679688 C 155.304688 295.1875 156.742188 295.628906 158.175781 296.085938 C 157.882812 297.277344 158.308594 298.65625 158.261719 299.875 C 158.527344 302.828125 158.324219 305.910156 159.230469 308.765625 C 159.523438 309.546875 160.378906 310.054688 161.203125 309.949219 C 162.714844 309.75 163.078125 308 163.390625 306.765625 C 164.085938 303.855469 164.6875 300.925781 165.347656 298.007812 C 165.386719 297.703125 165.378906 297.429688 165.332031 297.1875 C 165.917969 296.988281 166.484375 296.78125 166.964844 296.699219 C 169.03125 296.105469 171.113281 295.566406 173.207031 295.09375 C 176.960938 294.378906 176.125 290.746094 172.597656 290.597656 Z M 157.429688 292.1875 C 157.550781 292.15625 157.671875 292.128906 157.792969 292.097656 C 157.8125 292.175781 157.84375 292.253906 157.875 292.328125 C 157.726562 292.28125 157.578125 292.234375 157.429688 292.1875 Z M 157.429688 292.1875 " fill-opacity="1" fill-rule="nonzero"/><path fill="#fecd50" d="M 188.832031 232.085938 C 187.207031 231.984375 185.582031 231.914062 183.957031 231.847656 C 184.015625 229.144531 184.089844 226.441406 184.15625 223.738281 C 184.015625 220.753906 184.851562 217.355469 183.492188 214.609375 C 181.75 212.757812 180.007812 214.886719 179.675781 216.722656 C 178.984375 218.894531 178.34375 221.082031 177.6875 223.265625 C 177 225.730469 175.980469 228.109375 175.25 230.558594 C 175.082031 230.582031 174.90625 230.605469 174.722656 230.640625 C 172.027344 230.925781 169.136719 230.5625 166.570312 231.511719 C 164.316406 233.003906 166.269531 235.445312 168.210938 236.011719 C 170.445312 236.925781 172.832031 237.410156 175.089844 238.253906 C 175.015625 241.011719 174.984375 243.777344 175.09375 246.539062 C 175.160156 247.714844 175.078125 249.023438 175.742188 250.050781 C 177.578125 251.992188 179.1875 249.660156 179.632812 247.855469 C 180.6875 245.128906 181.558594 242.34375 182.398438 239.546875 C 184.183594 239.820312 186.277344 238.335938 188.003906 237.851562 C 189.738281 236.933594 192.5625 236.574219 193.066406 234.375 C 193.277344 232.054688 190.445312 232.148438 188.832031 232.085938 Z M 180.589844 226.511719 C 180.511719 226.476562 180.433594 226.445312 180.347656 226.421875 C 180.4375 226.15625 180.527344 225.894531 180.613281 225.625 C 180.605469 225.921875 180.597656 226.21875 180.589844 226.515625 Z M 180.589844 226.511719 " fill-opacity="1" fill-rule="nonzero"/><path fill="#fecd50" d="M 202.007812 174.074219 C 200.261719 174.191406 198.589844 174.855469 196.910156 175.414062 C 196.71875 173.578125 195.902344 171.070312 195.859375 169.644531 C 195.433594 167.832031 195.632812 165.671875 194.503906 164.125 C 193.660156 163.179688 192.003906 163.59375 191.574219 164.75 C 190.921875 168.375 190.964844 172.140625 190.628906 175.816406 C 190.523438 176.289062 190.511719 176.808594 190.613281 177.277344 C 188.539062 178.167969 186.425781 179.027344 184.5 180.167969 C 182.894531 181.394531 184.054688 183.78125 185.941406 183.734375 C 188.15625 183.804688 190.382812 183.722656 192.59375 183.535156 C 192.878906 184.761719 193.257812 185.984375 193.320312 186.785156 C 194.078125 188.800781 193.851562 193.320312 196.605469 193.5 C 199.980469 193.148438 198.578125 186.792969 198.890625 184.375 C 198.84375 183.558594 198.953125 182.210938 198.902344 180.921875 C 200.113281 180.5625 201.308594 179.09375 202.222656 178.386719 C 203.941406 177.234375 204.609375 174.496094 202.007812 174.074219 Z M 202.007812 174.074219 " fill-opacity="1" fill-rule="nonzero"/><path fill="#212120" d="M 203.140625 227.945312 C 201.566406 227.519531 201.46875 225.640625 201.296875 224.285156 C 200.929688 221.378906 200.699219 218.449219 200.726562 215.515625 C 200.726562 213.332031 204.796875 212.808594 205.070312 215.125 C 205.386719 217.894531 205.609375 220.683594 205.625 223.476562 C 205.683594 225.207031 205.691406 228.457031 203.140625 227.945312 Z M 203.140625 227.945312 " fill-opacity="1" fill-rule="nonzero"/><path fill="#212120" d="M 214.875 254.890625 C 213.351562 252.371094 213.507812 247.171875 213.367188 244.152344 C 213.40625 241.984375 216.617188 241.824219 216.863281 243.972656 C 218.039062 245.453125 217.578125 247.75 217.941406 249.542969 C 217.90625 251.371094 218.855469 253.953125 217.136719 255.234375 C 216.40625 255.65625 215.457031 255.519531 214.875 254.890625 Z M 214.875 254.890625 " fill-opacity="1" fill-rule="nonzero"/><path fill="#212120" d="M 185.109375 304.207031 C 183.777344 301.757812 184.808594 298.652344 184.886719 295.988281 C 185.035156 294.820312 185.210938 293.65625 185.414062 292.496094 C 185.621094 290.886719 187.882812 290.441406 188.664062 291.871094 C 190.40625 292.878906 189.292969 296.164062 189.464844 297.90625 C 189.398438 300.273438 188.839844 307.199219 185.109375 304.207031 Z M 185.109375 304.207031 " fill-opacity="1" fill-rule="nonzero"/><path fill="#212120" d="M 165.921875 264.953125 C 163.894531 264.324219 164.523438 261.878906 164.71875 260.292969 C 164.957031 258.53125 165.25 256.777344 165.601562 255.035156 C 166.230469 253.03125 166.375 246.757812 169.773438 249.300781 C 171.011719 249.742188 171.050781 251.222656 170.816406 252.316406 C 170.503906 254.558594 170.125 256.792969 169.648438 259.007812 C 169.007812 261.054688 168.910156 265.339844 165.921875 264.953125 Z M 165.921875 264.953125 " fill-opacity="1" fill-rule="nonzero"/><path fill="#212120" d="M 178.652344 204.570312 C 176.492188 203.402344 177.910156 200.539062 178.191406 198.6875 C 178.703125 196.675781 179.117188 194.59375 180.027344 192.714844 C 181.265625 190.703125 184.230469 192.644531 183.003906 194.589844 C 183.519531 196.382812 182.613281 198.410156 182.347656 200.222656 C 181.820312 201.996094 181.230469 205.460938 178.652344 204.570312 Z M 178.652344 204.570312 " fill-opacity="1" fill-rule="nonzero"/><path fill="#212120" d="M 202.78125 159.984375 C 200.265625 156.84375 208.359375 153.371094 210.761719 153.21875 C 213.449219 153.089844 213.300781 156.855469 210.648438 156.773438 C 209.675781 158.253906 207.683594 158.925781 206.222656 159.875 C 205.171875 160.402344 203.765625 160.988281 202.78125 159.984375 Z M 202.78125 159.984375 " fill-opacity="1" fill-rule="nonzero"/><g fill="#c5f957" fill-opacity="1"><g transform="translate(35.625002, 100.000118)"><g><path d="M 21 8.703125 C 18.925781 8.703125 16.972656 8.097656 15.140625 6.890625 C 13.304688 5.691406 12.390625 3.628906 12.390625 0.703125 C 12.390625 -1.097656 12.753906 -3.414062 13.484375 -6.25 C 14.222656 -9.082031 15.394531 -13.03125 17 -18.09375 C 19.59375 -26.363281 21.570312 -33.3125 22.9375 -38.9375 C 24.3125 -44.570312 25 -49.988281 25 -55.1875 C 25 -58.320312 24.894531 -60.820312 24.6875 -62.6875 C 24.488281 -64.550781 23.957031 -66.097656 23.09375 -67.328125 C 22.226562 -68.566406 20.863281 -69.1875 19 -69.1875 C 16.726562 -69.1875 14.804688 -68.300781 13.234375 -66.53125 C 11.671875 -64.769531 10.523438 -62.585938 9.796875 -59.984375 C 9.066406 -57.390625 8.703125 -54.859375 8.703125 -52.390625 C 8.703125 -50.191406 9 -48.394531 9.59375 -47 C 7.132812 -47 5.335938 -47.660156 4.203125 -48.984375 C 3.066406 -50.316406 2.5 -52.050781 2.5 -54.1875 C 2.5 -56.925781 3.347656 -59.675781 5.046875 -62.4375 C 6.742188 -65.207031 9.007812 -67.488281 11.84375 -69.28125 C 14.675781 -71.082031 17.660156 -71.984375 20.796875 -71.984375 C 24.859375 -71.984375 27.921875 -70.398438 29.984375 -67.234375 C 32.054688 -64.066406 33.09375 -59.71875 33.09375 -54.1875 C 33.09375 -49.320312 32.425781 -44.207031 31.09375 -38.84375 C 29.757812 -33.476562 27.859375 -26.992188 25.390625 -19.390625 C 23.660156 -14.128906 22.363281 -9.863281 21.5 -6.59375 C 20.632812 -3.332031 20.203125 -0.566406 20.203125 1.703125 C 20.203125 3.035156 20.414062 4.015625 20.84375 4.640625 C 21.28125 5.273438 22.066406 5.59375 23.203125 5.59375 C 26.328125 5.59375 30.085938 2.847656 34.484375 -2.640625 C 38.890625 -8.140625 42.859375 -14.539062 46.390625 -21.84375 C 49.921875 -29.144531 51.988281 -35.03125 52.59375 -39.5 C 54.59375 -39.5 56.09375 -38.976562 57.09375 -37.9375 C 58.09375 -36.90625 58.59375 -35.789062 58.59375 -34.59375 C 58.59375 -33.726562 58.320312 -32.5625 57.78125 -31.09375 C 57.25 -29.625 56.285156 -27.222656 54.890625 -23.890625 C 52.492188 -18.296875 50.660156 -13.566406 49.390625 -9.703125 C 48.128906 -5.835938 47.5 -2.132812 47.5 1.40625 C 47.5 2.800781 47.679688 3.847656 48.046875 4.546875 C 48.410156 5.242188 49.160156 5.59375 50.296875 5.59375 C 53.960938 5.59375 58.625 2.097656 64.28125 -4.890625 C 69.945312 -11.890625 74.894531 -20.15625 79.125 -29.6875 C 83.363281 -39.226562 85.484375 -47.460938 85.484375 -54.390625 C 85.484375 -57.523438 85 -59.90625 84.03125 -61.53125 C 83.070312 -63.164062 81.722656 -64.253906 79.984375 -64.796875 C 80.921875 -66.328125 81.890625 -67.472656 82.890625 -68.234375 C 83.890625 -69.003906 84.851562 -69.390625 85.78125 -69.390625 C 87.382812 -69.390625 88.800781 -68.421875 90.03125 -66.484375 C 91.269531 -64.554688 91.890625 -61.828125 91.890625 -58.296875 C 91.890625 -51.160156 89.390625 -42.207031 84.390625 -31.4375 C 79.390625 -20.675781 73.4375 -11.296875 66.53125 -3.296875 C 59.632812 4.703125 53.554688 8.703125 48.296875 8.703125 C 46.097656 8.703125 44.113281 8.050781 42.34375 6.75 C 40.570312 5.445312 39.6875 3.597656 39.6875 1.203125 C 39.6875 -0.597656 40.351562 -3.597656 41.6875 -7.796875 C 38.09375 -2.734375 34.53125 1.28125 31 4.25 C 27.46875 7.21875 24.132812 8.703125 21 8.703125 Z M 21 8.703125 "/></g></g></g><g fill="#c5f957" fill-opacity="1"><g transform="translate(126.210819, 100.000118)"><g><path d="M 19.203125 -43.1875 C 17.992188 -43.1875 17.003906 -43.46875 16.234375 -44.03125 C 15.472656 -44.601562 15.09375 -45.425781 15.09375 -46.5 C 15.09375 -47.832031 15.890625 -49.03125 17.484375 -50.09375 C 19.085938 -51.15625 20.722656 -51.6875 22.390625 -51.6875 C 24.597656 -51.6875 25.703125 -50.65625 25.703125 -48.59375 C 25.703125 -47.320312 25.015625 -46.101562 23.640625 -44.9375 C 22.273438 -43.769531 20.796875 -43.1875 19.203125 -43.1875 Z M 7.203125 2.59375 C 4.734375 2.59375 2.832031 1.8125 1.5 0.25 C 0.164062 -1.3125 -0.5 -3.328125 -0.5 -5.796875 C -0.5 -8.398438 0.25 -12 1.75 -16.59375 C 3.25 -21.195312 5.113281 -25.226562 7.34375 -28.6875 C 9.582031 -32.15625 11.765625 -33.890625 13.890625 -33.890625 C 14.492188 -33.890625 15.007812 -33.6875 15.4375 -33.28125 C 15.875 -32.882812 16.09375 -32.351562 16.09375 -31.6875 C 16.09375 -30.757812 15.023438 -28.53125 12.890625 -25 C 10.691406 -21.332031 8.941406 -18.046875 7.640625 -15.140625 C 6.347656 -12.242188 5.703125 -9.5 5.703125 -6.90625 C 5.703125 -4.570312 6.082031 -2.988281 6.84375 -2.15625 C 7.613281 -1.320312 8.863281 -0.90625 10.59375 -0.90625 C 15.789062 -0.90625 20.925781 -6.003906 26 -16.203125 L 26.890625 -15.203125 C 25.023438 -9.597656 22.273438 -5.226562 18.640625 -2.09375 C 15.015625 1.03125 11.203125 2.59375 7.203125 2.59375 Z M 7.203125 2.59375 "/></g></g></g><g fill="#c5f957" fill-opacity="1"><g transform="translate(150.307051, 100.000118)"><g><path d="M -0.5 28 C -4.894531 28 -7.09375 26.296875 -7.09375 22.890625 C -7.09375 20.828125 -6.359375 18.863281 -4.890625 17 C -3.429688 15.132812 -1.601562 13.414062 0.59375 11.84375 C 2.800781 10.28125 5.835938 8.332031 9.703125 6 C 12.492188 4.394531 15.054688 2.796875 17.390625 1.203125 C 17.390625 -1.265625 16.875 -3.5 15.84375 -5.5 C 14.8125 -7.5 13.03125 -9.5 10.5 -11.5 C 12.695312 -12.09375 14.628906 -13.222656 16.296875 -14.890625 C 17.960938 -16.554688 19.226562 -18.40625 20.09375 -20.4375 C 20.957031 -22.476562 21.390625 -24.398438 21.390625 -26.203125 C 21.390625 -27.734375 21.054688 -29 20.390625 -30 C 19.722656 -31 18.757812 -31.5 17.5 -31.5 C 15.425781 -31.5 13.539062 -30.726562 11.84375 -29.1875 C 10.144531 -27.65625 8.628906 -25.707031 7.296875 -23.34375 C 5.960938 -20.976562 4.296875 -17.660156 2.296875 -13.390625 L 1.09375 -14.390625 C 2.832031 -18.992188 4.46875 -22.757812 6 -25.6875 C 7.53125 -28.625 9.34375 -30.957031 11.4375 -32.6875 C 13.539062 -34.425781 16.023438 -35.296875 18.890625 -35.296875 C 21.222656 -35.296875 23.191406 -34.546875 24.796875 -33.046875 C 26.398438 -31.546875 27.203125 -29.5625 27.203125 -27.09375 C 27.203125 -23.695312 26.066406 -20.597656 23.796875 -17.796875 C 21.523438 -14.992188 18.722656 -12.757812 15.390625 -11.09375 C 18.859375 -8.425781 21.191406 -5.425781 22.390625 -2.09375 C 28.128906 -6.425781 31.832031 -11.128906 33.5 -16.203125 L 34.59375 -15 C 32.925781 -9.726562 29.0625 -4.796875 23 -0.203125 C 23.257812 0.660156 23.390625 1.757812 23.390625 3.09375 C 23.390625 7.03125 22.238281 10.945312 19.9375 14.84375 C 17.644531 18.75 14.648438 21.914062 10.953125 24.34375 C 7.253906 26.78125 3.4375 28 -0.5 28 Z M -1.203125 25.09375 C 0.597656 25.09375 2.898438 24.191406 5.703125 22.390625 C 8.503906 20.597656 11.035156 18.066406 13.296875 14.796875 C 15.566406 11.535156 16.898438 7.769531 17.296875 3.5 C 14.359375 5.363281 12.160156 6.695312 10.703125 7.5 C 7.097656 9.632812 4.34375 11.367188 2.4375 12.703125 C 0.539062 14.035156 -1.050781 15.46875 -2.34375 17 C -3.644531 18.53125 -4.296875 20.128906 -4.296875 21.796875 C -4.296875 22.929688 -4.007812 23.765625 -3.4375 24.296875 C -2.875 24.828125 -2.128906 25.09375 -1.203125 25.09375 Z M -1.203125 25.09375 "/></g></g></g><g fill="#c5f957" fill-opacity="1"><g transform="translate(182.002091, 100.000118)"><g><path d="M -0.5 28 C -4.894531 28 -7.09375 26.296875 -7.09375 22.890625 C -7.09375 20.828125 -6.359375 18.863281 -4.890625 17 C -3.429688 15.132812 -1.601562 13.414062 0.59375 11.84375 C 2.800781 10.28125 5.835938 8.332031 9.703125 6 C 12.492188 4.394531 15.054688 2.796875 17.390625 1.203125 C 17.390625 -1.265625 16.875 -3.5 15.84375 -5.5 C 14.8125 -7.5 13.03125 -9.5 10.5 -11.5 C 12.695312 -12.09375 14.628906 -13.222656 16.296875 -14.890625 C 17.960938 -16.554688 19.226562 -18.40625 20.09375 -20.4375 C 20.957031 -22.476562 21.390625 -24.398438 21.390625 -26.203125 C 21.390625 -27.734375 21.054688 -29 20.390625 -30 C 19.722656 -31 18.757812 -31.5 17.5 -31.5 C 15.425781 -31.5 13.539062 -30.726562 11.84375 -29.1875 C 10.144531 -27.65625 8.628906 -25.707031 7.296875 -23.34375 C 5.960938 -20.976562 4.296875 -17.660156 2.296875 -13.390625 L 1.09375 -14.390625 C 2.832031 -18.992188 4.46875 -22.757812 6 -25.6875 C 7.53125 -28.625 9.34375 -30.957031 11.4375 -32.6875 C 13.539062 -34.425781 16.023438 -35.296875 18.890625 -35.296875 C 21.222656 -35.296875 23.191406 -34.546875 24.796875 -33.046875 C 26.398438 -31.546875 27.203125 -29.5625 27.203125 -27.09375 C 27.203125 -23.695312 26.066406 -20.597656 23.796875 -17.796875 C 21.523438 -14.992188 18.722656 -12.757812 15.390625 -11.09375 C 18.859375 -8.425781 21.191406 -5.425781 22.390625 -2.09375 C 28.128906 -6.425781 31.832031 -11.128906 33.5 -16.203125 L 34.59375 -15 C 32.925781 -9.726562 29.0625 -4.796875 23 -0.203125 C 23.257812 0.660156 23.390625 1.757812 23.390625 3.09375 C 23.390625 7.03125 22.238281 10.945312 19.9375 14.84375 C 17.644531 18.75 14.648438 21.914062 10.953125 24.34375 C 7.253906 26.78125 3.4375 28 -0.5 28 Z M -1.203125 25.09375 C 0.597656 25.09375 2.898438 24.191406 5.703125 22.390625 C 8.503906 20.597656 11.035156 18.066406 13.296875 14.796875 C 15.566406 11.535156 16.898438 7.769531 17.296875 3.5 C 14.359375 5.363281 12.160156 6.695312 10.703125 7.5 C 7.097656 9.632812 4.34375 11.367188 2.4375 12.703125 C 0.539062 14.035156 -1.050781 15.46875 -2.34375 17 C -3.644531 18.53125 -4.296875 20.128906 -4.296875 21.796875 C -4.296875 22.929688 -4.007812 23.765625 -3.4375 24.296875 C -2.875 24.828125 -2.128906 25.09375 -1.203125 25.09375 Z M -1.203125 25.09375 "/></g></g></g><g fill="#c5f957" fill-opacity="1"><g transform="translate(213.69713, 100.000118)"><g><path d="M 4.796875 4.703125 C 2.597656 4.703125 0.816406 3.984375 -0.546875 2.546875 C -1.910156 1.117188 -2.59375 -0.925781 -2.59375 -3.59375 C -2.59375 -7.53125 -1.175781 -11.929688 1.65625 -16.796875 C 4.488281 -21.660156 8.066406 -25.789062 12.390625 -29.1875 C 16.722656 -32.59375 20.957031 -34.296875 25.09375 -34.296875 C 27.695312 -34.296875 29.863281 -33.59375 31.59375 -32.1875 C 33.320312 -30.789062 34.1875 -28.992188 34.1875 -26.796875 C 34.1875 -25.265625 33.753906 -24.164062 32.890625 -23.5 C 32.023438 -22.832031 30.828125 -22.5 29.296875 -22.5 C 29.628906 -23.695312 29.796875 -24.863281 29.796875 -26 C 29.796875 -27.664062 29.394531 -29.015625 28.59375 -30.046875 C 27.789062 -31.078125 26.554688 -31.59375 24.890625 -31.59375 C 21.960938 -31.59375 18.878906 -29.957031 15.640625 -26.6875 C 12.410156 -23.425781 9.710938 -19.53125 7.546875 -15 C 5.378906 -10.46875 4.296875 -6.566406 4.296875 -3.296875 C 4.296875 -0.703125 5.195312 0.59375 7 0.59375 C 9.664062 0.59375 12.796875 -1.519531 16.390625 -5.75 C 19.992188 -9.976562 23.863281 -15.128906 28 -21.203125 C 28.863281 -21.066406 29.742188 -20.78125 30.640625 -20.34375 C 31.546875 -19.914062 32 -19.367188 32 -18.703125 C 32 -18.160156 31.679688 -17.304688 31.046875 -16.140625 C 30.410156 -14.972656 30.023438 -14.289062 29.890625 -14.09375 C 28.765625 -12.164062 27.867188 -10.453125 27.203125 -8.953125 C 26.535156 -7.453125 26.203125 -6.066406 26.203125 -4.796875 C 26.203125 -3.660156 26.484375 -2.644531 27.046875 -1.75 C 27.609375 -0.851562 28.457031 -0.40625 29.59375 -0.40625 C 31.53125 -0.40625 33.960938 -1.785156 36.890625 -4.546875 C 39.828125 -7.316406 42.726562 -11.203125 45.59375 -16.203125 L 46.59375 -15.203125 C 45.195312 -11.671875 43.394531 -8.519531 41.1875 -5.75 C 38.988281 -2.976562 36.625 -0.828125 34.09375 0.703125 C 31.5625 2.234375 29.128906 3 26.796875 3 C 24.460938 3 22.675781 2.316406 21.4375 0.953125 C 20.207031 -0.410156 19.59375 -2.0625 19.59375 -4 C 19.59375 -4.863281 19.691406 -5.832031 19.890625 -6.90625 C 16.890625 -2.90625 14.207031 0.0234375 11.84375 1.890625 C 9.476562 3.765625 7.128906 4.703125 4.796875 4.703125 Z M 4.796875 4.703125 "/></g></g></g><g fill="#c5f957" fill-opacity="1"><g transform="translate(257.290317, 100.000118)"><g><path d="M 17.296875 2.59375 C 15.023438 2.59375 13.238281 1.992188 11.9375 0.796875 C 10.644531 -0.398438 10 -1.96875 10 -3.90625 C 10 -6.164062 10.960938 -9.429688 12.890625 -13.703125 C 13.765625 -15.898438 14.414062 -17.644531 14.84375 -18.9375 C 15.28125 -20.238281 15.5 -21.457031 15.5 -22.59375 C 15.5 -24.257812 15.113281 -25.578125 14.34375 -26.546875 C 13.582031 -27.515625 12.734375 -28.3125 11.796875 -28.9375 C 10.859375 -29.570312 10.226562 -29.988281 9.90625 -30.1875 C 8.4375 -26.457031 6.867188 -22.804688 5.203125 -19.234375 C 3.535156 -15.671875 2.132812 -12.925781 1 -11 L 0.09375 -12.703125 C 3.300781 -18.898438 6.003906 -25.226562 8.203125 -31.6875 C 7.535156 -32.351562 7.203125 -33.15625 7.203125 -34.09375 C 7.203125 -35.289062 7.453125 -36.421875 7.953125 -37.484375 C 8.453125 -38.554688 9.050781 -39.390625 9.75 -39.984375 C 10.445312 -40.585938 10.992188 -40.890625 11.390625 -40.890625 C 12.328125 -40.890625 12.796875 -40.09375 12.796875 -38.5 C 12.796875 -38.226562 12.628906 -37.625 12.296875 -36.6875 C 11.960938 -35.757812 11.765625 -35.128906 11.703125 -34.796875 C 11.703125 -34.128906 11.984375 -33.507812 12.546875 -32.9375 C 13.109375 -32.375 14.023438 -31.660156 15.296875 -30.796875 C 17.359375 -29.328125 18.972656 -27.875 20.140625 -26.4375 C 21.304688 -25.007812 21.890625 -23.160156 21.890625 -20.890625 C 21.890625 -19.429688 21.65625 -17.984375 21.1875 -16.546875 C 20.726562 -15.109375 20.03125 -13.222656 19.09375 -10.890625 C 17.625 -7.691406 16.890625 -5.394531 16.890625 -4 C 16.890625 -2 17.890625 -1 19.890625 -1 C 21.890625 -1 24.039062 -1.796875 26.34375 -3.390625 C 28.644531 -4.992188 30.757812 -6.976562 32.6875 -9.34375 C 34.625 -11.707031 36.023438 -13.890625 36.890625 -15.890625 L 38.1875 -14.890625 C 36.125 -10.296875 33.125 -6.234375 29.1875 -2.703125 C 25.257812 0.828125 21.296875 2.59375 17.296875 2.59375 Z M 17.296875 2.59375 "/></g></g></g><g fill="#c5f957" fill-opacity="1"><g transform="translate(292.084863, 100.000118)"><g><path d="M 5.90625 3 C 3.96875 3 2.234375 2.28125 0.703125 0.84375 C -0.828125 -0.582031 -1.59375 -2.664062 -1.59375 -5.40625 C -1.59375 -9.0625 -0.195312 -13.335938 2.59375 -18.234375 C 5.394531 -23.140625 8.894531 -27.328125 13.09375 -30.796875 C 17.289062 -34.265625 21.359375 -36 25.296875 -36 C 28.234375 -36 29.703125 -34.960938 29.703125 -32.890625 C 29.703125 -32.628906 29.632812 -32.164062 29.5 -31.5 C 28.832031 -32.5 27.566406 -33 25.703125 -33 C 22.367188 -33 19.132812 -31.414062 16 -28.25 C 12.863281 -25.082031 10.3125 -21.363281 8.34375 -17.09375 C 6.382812 -12.832031 5.40625 -9.332031 5.40625 -6.59375 C 5.40625 -5.132812 5.71875 -3.96875 6.34375 -3.09375 C 6.976562 -2.226562 7.863281 -1.796875 9 -1.796875 C 10.800781 -1.796875 13 -2.945312 15.59375 -5.25 C 18.195312 -7.550781 20.832031 -10.800781 23.5 -15 C 26.164062 -19.195312 28.53125 -23.960938 30.59375 -29.296875 C 35.789062 -42.765625 40.140625 -53.242188 43.640625 -60.734375 C 47.140625 -68.234375 50.085938 -71.984375 52.484375 -71.984375 C 53.023438 -71.984375 53.492188 -71.765625 53.890625 -71.328125 C 54.285156 -70.898438 54.484375 -70.351562 54.484375 -69.6875 C 54.484375 -68.6875 53.953125 -66.96875 52.890625 -64.53125 C 51.828125 -62.101562 50.09375 -58.359375 47.6875 -53.296875 C 42.757812 -43.023438 38.828125 -34.140625 35.890625 -26.640625 C 32.960938 -19.140625 31.5 -12.59375 31.5 -7 C 31.5 -4.800781 31.613281 -3.316406 31.84375 -2.546875 C 32.070312 -1.785156 32.722656 -1.40625 33.796875 -1.40625 C 35.191406 -1.40625 36.835938 -2.019531 38.734375 -3.25 C 40.640625 -4.476562 42.523438 -6.207031 44.390625 -8.4375 C 46.253906 -10.675781 47.851562 -13.265625 49.1875 -16.203125 L 50.390625 -15.296875 C 49.128906 -11.960938 47.394531 -8.925781 45.1875 -6.1875 C 42.988281 -3.457031 40.640625 -1.3125 38.140625 0.25 C 35.640625 1.8125 33.257812 2.59375 31 2.59375 C 28.726562 2.59375 27.054688 1.859375 25.984375 0.390625 C 24.921875 -1.066406 24.390625 -2.832031 24.390625 -4.90625 C 24.390625 -7.164062 25.023438 -10.726562 26.296875 -15.59375 C 22.898438 -10 19.382812 -5.5 15.75 -2.09375 C 12.113281 1.300781 8.832031 3 5.90625 3 Z M 5.90625 3 "/></g></g></g></svg>